<svg xmlns="http://www.w3.org/2000/svg" width="448.564" height="448.564" viewBox="0 0 448.564 448.564"><path d="M83.458 127.442l112.005 274.47c4.844 11.882 18.47 17.61 30.35 12.76l133.49-54.48c11.878-4.85 17.602-18.47 12.74-30.352L260.04 55.377c-4.844-11.89-18.474-17.618-30.35-12.758L96.21 97.097c-11.89 4.85-17.596 18.46-12.752 30.344zm149.664-76.394c7.236-2.947 15.54.536 18.488 7.765l112.006 274.47c2.96 7.236-.523 15.533-7.76 18.48l-133.484 54.48c-7.236 2.955-15.523-.533-18.486-7.77L91.876 123.997c-2.944-7.23.524-15.523 7.76-18.47l133.486-54.48z"/><path d="M207.88 378.4l138.835-56.66a2.265 2.265 0 0 0 1.25-2.97l-98.33-240.955a2.277 2.277 0 0 0-2.966-1.242L107.836 133.24a2.252 2.252 0 0 0-1.25 2.96l98.334 240.95a2.258 2.258 0 0 0 2.96 1.25zm41.39-289.44l90.637 222.116c1.65 4.037-.29 8.652-4.327 10.303L215.585 370.35c-4.037 1.65-8.65-.295-10.3-4.332l-90.637-222.115c-1.65-4.037.292-8.65 4.33-10.3L238.97 84.63a7.89 7.89 0 0 1 10.297 4.328zM160.174 96.908l23.684-9.68c1.17-.478 1.732-1.807 1.25-2.96a2.267 2.267 0 0 0-2.963-1.25l-23.7 9.68a2.287 2.287 0 0 0-1.248 2.96 2.284 2.284 0 0 0 2.977 1.25zM304.137 355.286c-2.04-4.986-7.744-7.39-12.73-5.357l-24.268 9.906c-4.982 2.04-7.395 7.744-5.358 12.72l.604 1.453c2.02 4.985 7.733 7.387 12.726 5.356l24.252-9.908c4.986-2.036 7.394-7.738 5.357-12.725l-.583-1.447zm-6.484 9.963l-24.273 9.906c-2.65 1.08-5.707-.198-6.784-2.86l-.6-1.456a5.21 5.21 0 0 1 2.864-6.784l24.273-9.907c2.65-1.082 5.713.197 6.784 2.853l.584 1.452a5.216 5.216 0 0 1-2.847 6.794zM126.908 49.784a5.85 5.85 0 0 0 1.7-4.187 5.77 5.77 0 0 0-.374-2.046c-.86-2.322-3.103-3.853-5.568-3.846-47.353.244-85.702 38.963-85.456 86.316.016 3.184 2.78 5.908 5.957 5.9a5.928 5.928 0 0 0 4.18-1.762 5.906 5.906 0 0 0 1.713-4.194c-.213-40.827 32.834-74.212 73.66-74.418a5.805 5.805 0 0 0 4.188-1.762z"/><path d="M130.643 14.266c3.255-.015 5.896-2.68 5.896-5.964a6.244 6.244 0 0 0-.39-2.04 5.93 5.93 0 0 0-5.586-3.838C58.216 2.78-.354 61.958 0 134.337c.017 3.2 2.79 5.893 5.973 5.886a5.84 5.84 0 0 0 4.164-1.762 5.834 5.834 0 0 0 1.714-4.186C11.52 68.436 64.805 14.606 130.644 14.266zM359.91 397.757a5.785 5.785 0 0 0-3.06 3.362 6 6 0 0 0 .23 4.52 5.92 5.92 0 0 0 1.22 1.69c1.762 1.74 4.437 2.172 6.682 1.12 42.772-20.315 61.062-71.63 40.75-114.41-1.36-2.88-5.03-4.175-7.9-2.824a5.968 5.968 0 0 0-3.04 3.372 5.913 5.913 0 0 0 .228 4.53c17.522 36.886 1.77 81.126-35.11 98.64z"/><path d="M428 267.918a5.87 5.87 0 0 0-3.022 3.372c-.538 1.488-.467 3.098.23 4.515 28.218 59.48 2.803 130.83-56.66 159.067-2.95 1.396-4.194 4.926-2.813 7.906.31.625.71 1.184 1.198 1.68a5.97 5.97 0 0 0 6.703 1.108C439 414.56 466.923 336.12 435.892 270.72c-1.348-2.892-5.014-4.157-7.893-2.802z"/></svg>